<svg width="220" height="230" viewBox="0 0 220 230" fill="none" xmlns="http://www.w3.org/2000/svg">
<path id="Union" fill-rule="evenodd" clip-rule="evenodd" d="M32.1308 183.017C17.996 173.198 7.38606 158.747 3.03998 141.202C-2.40778 119.209 3.1182 96.922 16.2605 79.5378C14.4524 76.6335 13.0969 73.4814 12.2611 70.107C6.1966 45.6242 29.786 18.7159 64.9495 10.0059C77.4919 6.89907 89.8127 6.5272 100.749 8.44553C106.303 5.96639 112.331 3.97194 118.725 2.58043C154.127 -5.12384 187.336 8.57227 192.9 33.1715C192.914 33.2325 192.928 33.2934 192.941 33.3544C204.73 42.973 213.505 56.0943 217.357 71.6474C221.15 86.9602 219.623 102.415 213.91 116.259C215.018 119.175 215.966 122.199 216.739 125.32C224.281 155.768 212.773 185.862 190.347 199.785C179.597 212.94 164.34 222.99 146.15 227.495C123.695 233.058 101.246 229.061 83.5709 218.18C65.2116 222.997 44.6044 208.051 32.1308 183.017Z" fill="#D9D9D9"/>
</svg>
